<mxfile host="app.diagrams.net" modified="2023-08-22T14:40:24.546Z" agent="Mozilla/5.0 (Macintosh; Intel Mac OS X 10_15_7) AppleWebKit/605.1.15 (KHTML, like Gecko) Version/16.3 Safari/605.1.15" version="21.6.5" etag="YTgWzXL8U9GB6gQVlbt9" type="github">
  <diagram name="第 1 页" id="jzvlUdwYjkxxVMhNJvlO">
    <mxGraphModel>
      <root>
        <mxCell id="0" />
        <mxCell id="1" parent="0" />
      </root>
    </mxGraphModel>
  </diagram>
</mxfile>
